<svg width="407" height="450" viewBox="0 0 407 450" fill="none" xmlns="http://www.w3.org/2000/svg">
<path d="M406.405 446.673C406.215 446.096 406.006 445.52 405.804 444.944C399.687 427.782 391.511 411.681 380.803 396.916C379.651 395.328 379.185 393.771 379.215 391.853C379.295 385.73 379.246 379.607 379.234 373.484C379.234 372.485 379.405 371.234 377.836 371.332C376.537 371.412 376.715 372.527 376.653 373.428C376.347 377.982 376.341 377.982 371.683 377.982C371.272 377.982 370.867 377.982 370.457 377.982C366.264 377.982 366.277 377.982 366.185 373.649C366.16 372.491 366.552 370.768 364.824 370.793C363.108 370.817 363.518 372.552 363.494 373.704C363.402 377.982 363.427 377.982 359.136 377.982C358.725 377.982 358.321 377.995 357.91 377.982C356.096 377.921 353.853 378.473 352.584 377.609C351.34 376.763 352.327 374.391 352.161 372.699C352.143 372.497 352.155 372.288 352.124 372.086C352.026 371.283 351.591 370.713 350.77 370.738C349.912 370.762 349.562 371.412 349.532 372.209C349.495 373.33 349.409 374.464 349.525 375.574C349.709 377.327 349.311 378.111 347.27 378.068C345.401 378.031 344.886 377.578 344.91 375.684C345.021 367.213 345.014 358.743 344.916 350.272C344.892 348.035 345.646 346.098 346.351 344.088C346.7 343.095 347.252 342.531 348.355 342.69C351.186 343.101 351.628 341.434 351.419 339.178C351.364 338.572 351.327 337.94 351.413 337.346C352.357 330.873 348.606 324.836 349.66 318.333C349.887 316.954 348.71 316.745 347.564 316.954C346.553 321.171 346.553 321.171 341.901 321.165C340.589 321.165 339.271 321.165 337.96 321.165C334.086 321.165 333.154 319.381 335.036 315.593C336.685 312.112 338.542 308.716 339.572 304.965C339.78 304.199 340.227 303.672 341.055 303.212C345.266 300.871 345.266 295.925 341 293.577C336.869 291.309 332.787 291.849 328.876 294.411C328.055 294.95 327.522 296.586 325.946 295.048C324.598 293.724 324.684 292.811 325.383 291.174C330.788 278.505 329.967 266.161 321.803 255.037C319.21 251.506 317.709 248.27 316.746 244.004C310.826 217.716 303.746 191.722 295.435 166.071C291.893 155.13 288.264 144.214 281.749 134.573C278.604 129.915 275.258 125.312 270.189 122.584C261.988 118.177 253.168 115.946 243.833 115.793C237.189 115.689 234.339 112.82 234.364 106.225C234.376 103.369 234.529 100.513 234.615 97.6629C234.652 96.3758 234.689 95.1009 236.313 94.6964C236.822 96.578 237.085 98.5087 238.115 100.2C239.739 102.879 242.712 104.387 245.329 103.645C248.185 102.83 249.221 100.568 249.411 97.8345C249.509 96.4125 249.472 94.9844 249.46 93.5563C249.405 86.7345 248.302 79.9372 249.245 73.0848C249.926 68.1201 251.348 63.3454 252.518 58.5034C253.377 54.9423 253.377 51.6141 250.226 49.0276C249.846 48.715 249.423 48.3963 249.754 47.7711C251.734 43.9955 249.509 40.0054 250.49 35.9969C251.74 30.879 245.28 28.2557 245.004 23.1746C244.924 21.6545 243.22 20.5206 241.786 19.6687C237.857 17.3334 235.246 13.8337 233.23 9.84354C231.82 7.04249 229.975 4.75629 226.573 4.8421C225.152 4.87888 224.41 4.43757 223.521 3.4569C221.621 1.36071 219.194 0.373906 216.362 1.21361C214.848 1.66104 213.671 1.43426 212.182 0.815209C209.522 -0.294178 206.549 -0.294178 203.902 0.956181C202.7 1.52007 201.787 1.73459 200.567 1.33006C197.515 0.312614 194.984 1.31168 192.826 3.53658C192.219 4.16176 191.882 4.98307 190.662 4.87888C186.482 4.50499 184.423 7.08539 182.989 10.5607C182.621 11.4494 182.664 12.5036 181.634 13.1901C178.435 15.3231 177.098 19.5338 173.139 20.8884C172.636 21.06 172.146 21.7036 171.95 22.2429C170.589 25.9572 168.99 29.4815 166.415 32.5952C165.257 33.9988 165.398 36.2359 166.109 37.9215C167.549 41.3232 164.595 44.9272 166.777 48.2185C166.85 48.3289 166.556 48.7824 166.342 48.954C162.395 52.1167 163.21 56.1988 164.393 60.1644C166.906 68.5553 168.046 77.0565 167.365 85.8151C167.065 89.6704 166.808 93.5625 166.998 97.4177C167.194 101.426 168.879 103.381 171.558 103.749C174.72 104.191 177.693 102.217 179.035 98.6987C179.55 97.3564 179.893 95.9528 180.335 94.5186C181.695 95.4073 181.885 96.578 181.898 97.8468C181.941 101.316 182.063 104.785 182.057 108.248C182.051 112.183 178.312 115.793 174.285 115.762C165.698 115.689 157.454 117.344 149.689 120.954C147.102 122.155 146.305 121.683 146.33 119.017C146.385 112.882 140.838 111.178 137.381 107.856C136.462 106.973 135.07 107.31 133.9 107.886C133.213 108.224 132.692 108.689 131.693 108.266C129.156 107.188 127.194 108.328 125.576 110.344C125.006 111.061 124.829 112.195 123.358 111.987C120.9 111.644 119.337 113.231 118.197 115.119C113.336 123.142 110.431 131.686 111.461 141.235C111.657 143.05 112.264 144.925 111.988 146.66C111.265 151.14 111.252 155.602 111.651 160.077C112.159 165.801 111.773 171.361 109.72 176.822C107.103 183.76 104.835 190.833 102.261 197.79C96.5729 213.168 92.0863 228.761 93.2018 245.42C93.2938 246.793 92.4847 247.406 91.7308 248.215C83.8854 256.63 80.9128 266.658 82.0835 277.984C82.5922 282.918 84.9458 287.19 87.4036 291.469C84.9642 292.032 82.8619 292.866 81.3357 294.601C80.2202 295.863 79.5214 295.765 78.1975 294.735C74.1093 291.542 68.6911 291.377 65.1362 294.055C61.8509 296.537 61.7099 300.724 64.842 302.789C66.7298 304.033 72.528 316.365 72.2706 318.603C72.7487 320.509 72.2277 321.416 70.0518 321.183C68.354 320.999 66.6194 321.146 64.8971 321.146C60.2389 321.152 60.2389 321.152 59.2031 316.942C58.0447 316.727 57.1253 316.911 57.0763 318.339C56.9414 322.39 57.1376 326.332 55.5869 330.389C54.4652 333.325 55.3846 337.039 55.354 340.41C55.3417 342.12 56.163 342.776 57.8179 342.697C58.7863 342.648 59.8589 342.408 60.3002 343.812C60.907 345.737 61.8693 347.52 61.8509 349.659C61.7835 358.332 61.7651 367.011 61.8754 375.684C61.9 377.602 61.3483 378.007 59.5034 378.056C57.4379 378.105 57.0517 377.284 57.2601 375.555C57.3459 374.85 57.303 374.127 57.2663 373.416C57.205 372.356 57.6156 370.817 56.0098 370.774C54.4407 370.732 54.6552 372.203 54.6246 373.312C54.4959 377.976 54.4897 377.976 49.7764 377.976C49.1634 377.976 48.5505 377.976 47.9376 377.976C43.4388 377.976 43.4572 377.976 43.2794 373.404C43.2365 372.337 43.543 370.793 41.9739 370.762C40.4477 370.732 40.6071 372.19 40.5703 373.318C40.4293 377.976 40.4232 377.976 35.7098 377.976C35.2992 377.976 34.8946 377.976 34.484 377.976C30.2916 377.976 30.2977 377.976 30.1139 373.729C30.071 372.766 30.4264 371.424 28.9371 371.338C27.1412 371.234 27.558 372.748 27.5518 373.784C27.5212 379.496 27.4293 385.215 27.5825 390.927C27.6499 393.508 26.9573 395.567 25.4495 397.669C14.7786 412.576 6.56543 428.769 0.601706 446.109C0.282987 447.034 -0.513811 448.082 0.49138 448.891C1.33108 449.572 2.21982 449.1 2.78983 448.193C8.73517 430.075 17.4938 413.397 28.4957 397.859C29.3048 396.713 30.261 396.444 31.5849 396.444C68.9976 396.474 106.41 396.468 143.817 396.468C145 396.468 146.275 396.131 146.262 398.148C146.164 414.862 146.134 431.576 146.079 448.284C146.967 449.939 147.911 450.344 148.965 448.413C148.929 428.824 148.892 409.229 148.855 389.64C148.855 388.721 148.935 387.789 148.812 386.888C148.659 385.785 147.832 385.098 146.931 385.889C145.643 387.017 144.24 386.631 142.885 386.631C107.783 386.655 72.6751 386.655 37.5731 386.655C36.7579 386.655 35.9427 386.643 35.1214 386.668C34.3369 386.692 33.6933 386.992 33.6443 387.875C33.583 388.972 34.3308 389.236 35.2318 389.26C36.0469 389.279 36.8621 389.272 37.6834 389.272C72.8896 389.272 108.096 389.303 143.302 389.205C146.03 389.199 146.642 390.149 146.354 392.545C146.226 393.643 145.723 393.912 144.779 393.875C144.166 393.851 143.553 393.875 142.94 393.875C106.41 393.875 69.8741 393.839 33.344 393.943C30.6594 393.949 29.7706 393.342 30.0342 390.621C30.2977 387.893 30.169 385.111 30.071 382.359C30.0158 380.882 30.5184 380.348 31.9833 380.459C33.4052 380.563 34.8395 380.483 36.2676 380.483C74.0235 380.483 111.786 380.526 149.542 380.403C152.606 380.391 153.152 381.28 153.133 384.13C152.998 405.558 153.047 426.985 153.035 448.419C153.93 449.627 155.248 449.265 156.419 449.271C187.733 449.29 219.047 449.29 250.367 449.265C251.532 449.265 252.856 449.615 253.757 448.425C253.744 426.691 253.757 404.951 253.677 383.217C253.671 381.163 254.088 380.434 256.325 380.44C295.613 380.508 334.901 380.502 374.196 380.44C376.181 380.44 376.856 380.949 376.739 382.978C376.568 386.03 376.647 389.101 376.715 392.159C376.745 393.453 376.365 394.09 374.992 393.9C374.594 393.845 374.177 393.894 373.767 393.894C337.028 393.894 300.29 393.882 263.551 393.937C261.369 393.943 260.162 393.716 260.394 391.044C260.634 388.329 262.515 389.309 263.766 389.309C295.705 389.26 327.65 389.272 359.59 389.279C362.55 389.279 365.523 389.456 368.465 389.199C370.034 389.064 372.994 390.486 372.927 387.9C372.866 385.521 369.905 386.723 368.305 386.717C346.056 386.625 323.813 386.655 301.564 386.655C289.012 386.655 276.459 386.668 263.907 386.631C262.546 386.625 261.148 387.017 259.861 385.889C258.954 385.098 258.127 385.779 257.973 386.882C257.845 387.783 257.931 388.715 257.931 389.634C257.894 409.229 257.857 428.818 257.82 448.413C258.874 450.35 259.818 449.915 260.713 448.284C260.658 434.322 260.603 420.366 260.554 406.404C260.548 403.958 260.701 401.5 260.511 399.067C260.333 396.824 261.246 396.413 263.287 396.419C300.498 396.474 337.702 396.462 374.913 396.444C376.286 396.444 377.389 396.548 378.308 397.853C389.304 413.397 398.05 430.075 404.002 448.186C404.572 449.1 405.412 449.504 406.307 448.879C407.122 448.327 406.662 447.433 406.405 446.673ZM336.581 323.684C339.431 323.745 342.281 323.776 345.125 323.678C346.786 323.622 347.178 324.327 347.178 325.853C347.178 327.343 346.633 327.833 345.204 327.754C343.684 327.668 342.152 327.735 340.626 327.735C339.302 327.741 337.972 327.662 336.66 327.766C335.03 327.895 334.319 327.472 334.337 325.621C334.356 323.825 335.177 323.653 336.581 323.684ZM329.452 297.383C331.739 294.809 336.66 294.055 339.559 295.833C340.767 296.574 341.668 297.549 341.49 299.014C341.294 300.656 339.896 300.963 338.554 301.147C337.855 301.245 337.138 301.196 336.427 301.19C335.637 301.177 334.969 301.422 334.822 302.256C334.705 302.918 335.103 303.531 335.741 303.653C337.077 303.911 336.979 304.579 336.605 305.603C335.232 309.311 333.657 312.909 330.862 316.837C330.752 310.359 331.358 304.61 328.87 299.247C328.484 298.419 328.962 297.935 329.452 297.383ZM327.24 302.618C328.815 307.876 328.177 313.276 328.073 318.639C328.472 320.307 328.239 321.41 326.1 321.134C325.107 321.005 324.059 320.975 323.072 321.134C320.038 321.63 318.548 320.619 319.106 317.383C317.966 316.568 317.059 316.678 316.452 318.039C317.133 320.595 316.103 321.514 313.578 321.128C312.793 321.005 311.966 321.03 311.175 321.128C309.036 321.379 308.828 320.264 309.287 318.609C309.097 313.35 308.497 308.066 309.869 302.881C311.249 297.677 314.705 294.233 318.42 294.153C322.079 294.074 325.707 297.494 327.24 302.618ZM328.226 325.896C328.269 326.877 328.233 327.741 326.86 327.704C325.125 327.655 323.391 327.619 321.662 327.729C320.032 327.833 319.014 327.723 319.057 325.565C319.1 323.371 320.363 323.708 321.68 323.745C322.391 323.763 323.109 323.751 323.82 323.751C323.82 323.757 323.82 323.763 323.82 323.763C324.837 323.763 325.861 323.782 326.878 323.757C328.527 323.72 328.177 324.928 328.226 325.896ZM310.323 323.763C311.635 323.794 312.952 323.825 314.258 323.745C315.772 323.653 316.655 323.855 316.667 325.792C316.679 327.907 315.484 327.735 314.135 327.692C313.731 327.68 313.326 327.692 312.922 327.692C312.922 327.668 312.922 327.637 312.922 327.613C311.812 327.613 310.605 327.888 309.624 327.533C308.65 327.177 309.146 325.933 309.091 325.069C309.042 324.248 309.398 323.745 310.323 323.763ZM186.807 10.15C187.818 8.33575 189.332 7.3796 191.367 8.28672C192.973 9.00384 193.641 8.56866 194.401 7.06088C195.934 4.01466 197.637 3.54271 200.898 4.90952C201.848 5.30792 202.811 5.87794 203.748 5.08727C206.825 2.50687 209.816 2.59881 212.82 5.1976C213.684 5.94536 214.53 5.41825 215.375 5.05049C219.065 3.44464 220.095 3.7511 222.222 7.39798C222.927 8.59931 223.57 8.97932 224.888 8.37253C227.248 7.28153 228.78 8.43995 229.859 10.4687C230.153 11.0265 230.931 11.6946 230.073 12.2768C229.448 12.6998 228.768 12.4178 228.204 11.7926C226.678 10.1071 224.704 9.41449 222.246 9.39611C220.536 10.5116 219.274 9.22449 217.864 8.2193C216.601 7.3183 214.787 6.3744 213.598 7.03023C208.688 9.73934 203.264 4.97082 198.594 8.26833C197.104 9.32256 195.842 9.83741 193.954 9.49417C191.876 9.11416 189.958 10.0887 188.462 11.621C187.831 12.2646 187.089 12.8346 186.384 12.2278C185.587 11.5536 186.452 10.7874 186.807 10.15ZM172.017 31.02C173.292 30.3458 173.783 29.7696 173.593 28.2312C173.176 24.8356 174.904 22.3165 178.153 21.7526C179.887 21.4523 180.488 20.8393 180.813 19.1416C181.358 16.2976 183.798 14.8082 186.55 15.6663C188.29 16.2118 189.234 16.1689 190.27 14.4588C191.441 12.5343 193.433 11.8171 195.56 13.0491C197.061 13.9133 197.827 13.4475 198.857 12.2401C201.205 9.49417 203.81 9.29804 206.555 11.6639C207.8 12.7365 208.535 12.9081 209.859 11.7497C212.728 9.24288 215.118 9.46353 217.735 12.4178C218.728 13.5395 219.488 13.8337 220.824 13.0798C223.098 11.7988 225.047 12.5956 226.328 14.6366C227.211 16.0402 227.995 16.2547 229.558 15.7889C232.795 14.8205 235.056 16.1137 235.712 19.3622C236.037 20.9864 236.668 21.4584 238.225 21.7342C241.241 22.2613 243.116 24.7437 243.018 27.7837C242.019 29.6041 243.202 30.4009 244.863 31.2897C247.64 32.7668 248.412 35.6046 246.745 38.2831C245.881 39.6744 245.519 40.7041 246.702 42.0464C247.302 42.7206 247.566 43.6952 247.388 44.6391C247.076 46.2572 246.726 48.1266 244.636 48.0776C242.638 48.0285 242.246 46.3124 242.503 44.7065C242.779 42.9474 241.982 42.3039 240.481 41.9606C237.894 41.36 236.748 39.6193 236.907 37.045C237.036 34.9304 236.264 34.2072 234.186 34.8569C232.231 35.4636 230.539 34.8262 229.234 33.3429C228.118 32.0742 227.223 32.1784 225.863 33.11C223.012 35.0652 220.788 34.8507 218.189 32.3929C216.699 30.9832 215.627 30.7074 213.77 31.9884C209.92 34.6485 205.704 34.6178 201.64 32.3684C200.157 31.5471 199.213 31.4919 197.919 32.7055C195.737 34.7527 193.151 35.0223 190.699 33.1897C189.277 32.1232 188.284 32.0619 187.083 33.4349C185.771 34.9304 184.074 35.4207 182.106 34.8017C180.224 34.2072 179.421 34.9549 179.55 36.904C179.728 39.6254 178.539 41.409 175.811 41.9974C174.383 42.31 173.758 42.9965 173.973 44.5655C174.218 46.3185 173.813 48.1572 171.656 48.0592C169.492 47.9611 169.18 46.0059 169.075 44.1978C169.02 43.2355 169.4 42.3897 169.976 41.6603C170.81 40.6061 170.571 39.7602 169.909 38.6386C168.003 35.3717 168.701 32.7791 172.017 31.02ZM178.386 84.4422C177.276 81.8128 176.412 79.1036 175.854 76.3026C175.627 75.1442 175.431 73.9183 173.862 74.2432C172.305 74.568 172.569 75.8674 172.777 76.9645C173.55 80.9853 174.917 84.8038 176.755 88.4568C178.006 90.9453 176.859 97.7058 174.886 99.612C174.022 100.439 172.998 100.93 171.833 100.519C170.767 100.139 170.393 99.1523 170.277 98.0858C169.848 94.206 170.436 90.3446 170.448 86.6732C171.613 77.2894 170.05 68.4082 167.519 59.625C166.955 57.6698 166.244 55.7023 166.808 53.6368C167.145 52.4048 167.929 51.2648 169.321 51.3506C170.994 51.4548 170.467 52.9564 170.534 53.98C170.834 58.5585 171.08 63.137 171.398 67.7156C171.478 68.8985 171.447 70.4553 173.28 70.1673C175.039 69.8914 174.647 68.3837 174.487 67.213C173.868 62.6467 173.948 58.0559 173.783 53.4713C173.727 51.988 174.426 51.0073 175.186 49.7508C177.092 46.5882 179.722 44.0384 181.732 41.0596C182.927 39.2883 183.712 38.0808 185.931 37.6947C187.8 37.3698 189.388 35.6537 191.557 37.045C192.679 37.7621 194.309 37.9337 195.419 37.3514C198.851 35.5433 202.167 36.0153 205.728 36.8856C208.535 37.5782 211.459 36.9101 214.015 35.5127C215.29 34.8139 216.05 34.8446 217.202 35.7456C219.605 37.6273 222.406 38.0624 225.28 36.9592C226.696 36.4137 227.744 36.6098 229.209 37.1124C232.022 38.0808 233.549 39.9931 235.559 41.979C238.262 44.6452 239.224 48.3779 242.172 50.6641C243.03 51.326 242.657 52.3741 242.669 53.2568C242.712 57.9517 242.485 62.6344 242.013 67.311C241.897 68.4572 241.474 70.0385 243.312 70.1734C245.071 70.3021 244.943 68.782 245.114 67.5746C245.752 63.0145 245.691 58.4175 245.868 53.8329C245.905 52.8522 245.592 51.5467 246.996 51.369C248.4 51.1912 249.19 52.178 249.619 53.459C250.318 55.5491 249.527 57.492 248.982 59.4289C246.493 68.2182 245.053 77.1116 245.874 86.2932C246.193 89.842 246.236 93.4215 246.316 96.9826C246.352 98.5332 246.218 100.243 244.275 100.593C242.497 100.905 241.271 99.6488 240.738 98.2145C239.414 94.6289 237.962 91.0434 240.266 87.1697C242.099 84.0928 242.932 80.5808 243.699 77.0994C243.956 75.9165 244.25 74.47 242.467 74.2125C240.83 73.9735 240.879 75.3526 240.634 76.4374C238.752 84.6812 235.118 91.9198 228.627 97.5648C215.406 109.057 188.56 108.487 178.386 84.4422ZM131.675 134.309C131.834 133.317 131.699 132.275 131.699 131.809C131.491 124.87 133.704 118.827 134.396 112.563C134.476 111.852 134.862 110.767 135.739 110.7C136.756 110.62 137.406 111.527 137.602 112.447C137.921 113.979 138.521 115.389 138.043 117.154C136.492 122.928 137.724 128.959 136.695 134.794C136.511 135.829 137.473 137.858 135.15 137.674C133.207 137.521 131.234 137.141 131.675 134.309ZM125.57 120.01C126.704 117.705 126.036 114.917 127.66 112.79C128.322 111.919 128.96 110.706 130.296 111.245C131.454 111.717 131.301 112.974 131.093 113.942C129.542 121.107 128.126 128.254 128.586 135.682C128.727 137.975 126.214 136.7 124.994 137.245C123.805 137.785 123.768 136.712 123.725 135.879C123.646 134.254 123.548 132.624 123.492 131.637C123.529 127.218 123.872 123.461 125.57 120.01ZM112.227 181.229C111.301 185.899 110.069 190.539 109.518 195.258C108.629 202.908 105.172 209.852 103.885 217.373C102.671 224.458 102.383 231.562 103.37 238.672C103.671 240.823 103.474 242.098 101.072 242.613C99.5272 242.944 98.0991 243.808 96.3032 244.568C94.9058 221.589 104.559 201.67 112.227 181.229ZM118.693 239.517C114.728 239.628 111.344 239.959 108.016 240.651C106.465 240.976 106.692 239.891 106.564 239.039C105.405 231.139 105.767 223.306 107.661 215.46C109.26 224.237 111.951 232.512 118.693 239.517ZM86.1042 264.923C89.8553 251.243 97.7129 244.672 111.896 243.232C129.53 241.442 146.912 243.557 164.227 246.603C172.753 248.104 181.223 249.913 189.761 251.328C192.697 251.813 193.727 252.842 193.586 255.938C193.133 265.947 192.042 275.851 189.737 285.609C189.645 286.007 189.479 286.387 189.406 286.786C189.21 287.846 189.155 288.919 190.534 289.195C191.882 289.464 192.238 288.533 192.52 287.442C193.794 282.397 194.83 277.304 195.413 272.137C195.921 267.577 196.35 263.005 196.546 258.42C196.626 256.612 197.386 256.52 198.765 256.563C203.571 256.71 208.339 256.324 213.095 255.649C214.34 255.472 215.4 255.202 215.143 253.67C214.903 252.266 213.727 252.383 212.715 252.536C209.841 252.959 206.972 253.351 203.883 253.136C206.942 249.453 211.569 248.282 216.08 249.839C218.127 250.55 219.948 251.659 221.658 252.953C226.377 256.514 231.256 259.793 237.214 261.963C227.156 264.972 217.521 267.853 207.892 270.733C207.401 270.881 206.899 270.966 206.421 271.138C205.415 271.512 204.453 272.033 204.931 273.332C205.379 274.546 206.31 274.509 207.45 274.154C213.083 272.413 218.722 270.684 224.398 269.072C236.037 265.757 247.695 262.514 259.346 259.247C260.603 258.898 262.27 258.818 261.694 256.875C261.173 255.092 259.696 255.895 258.605 256.177C254.664 257.182 250.661 258.04 246.849 259.425C243.925 260.485 241.363 260.099 238.63 259.094C233.211 257.108 228.382 254.154 223.858 250.611C219.715 247.369 215.161 245.34 209.7 246.296C205.924 246.958 202.811 248.723 200.439 251.715C199.721 252.616 199.145 253.474 197.766 253.333C196.032 253.155 196.779 251.855 196.638 251.01C196.314 249.061 194.671 249.146 193.353 248.883C187.058 247.626 180.77 246.351 174.445 245.285C172.679 244.985 172.097 244.458 172.085 242.625C171.987 226.707 171.809 210.79 171.576 194.866C171.545 192.948 171.913 192.292 174.065 192.353C185.777 192.69 196.945 189.865 207.604 185.372C220.457 179.954 227.861 169.375 232.69 156.791C236.533 146.789 237.772 136.265 238.28 125.637C238.335 124.527 238.912 122.897 237.067 122.707C235.056 122.498 235.277 124.159 235.191 125.471C234.45 136.792 233.138 147.99 228.565 158.557C222.718 172.053 213.267 181.388 198.741 185.225C191.147 187.235 183.608 189.38 175.664 189.35C171.607 189.338 171.594 189.307 171.693 185.372C172.207 164.87 172.943 144.38 175.664 124.019C175.799 123.007 176.069 121.787 174.684 121.524C173.016 121.205 172.624 122.48 172.489 123.786C171.76 130.785 170.902 137.772 170.356 144.784C167.868 176.675 168.248 208.614 168.953 240.553C169.039 244.317 169.039 244.243 165.392 243.624C160.574 242.803 155.744 242.018 150.896 241.393C148.959 241.142 148.242 240.492 148.089 238.414C147.114 224.771 144.914 211.311 142.046 197.937C140.415 190.361 139.686 182.632 139.208 174.891C139.104 173.163 139.814 172.347 141.187 171.563C142.211 170.974 143.418 169.963 142.499 168.602C141.494 167.119 140.464 168.173 139.453 168.939C137.731 170.245 135.818 169.902 133.894 169.387C132.778 169.093 131.503 168.89 131.178 170.423C130.847 171.955 132.079 172.396 133.238 172.445C135.714 172.55 136.137 173.788 136.198 176.105C136.456 185.807 138.736 195.301 139.392 204.967C140.103 215.472 138.343 225.432 133.005 234.675C129.058 241.503 123.977 240.621 119.766 235.969C113.735 229.294 111.449 221.13 110.983 212.402C110.468 202.816 113.054 193.61 114.887 184.318C115.457 181.419 116.131 178.544 116.646 175.639C116.934 174.008 117.418 173.199 119.386 173.53C122.242 174.014 124.767 172.825 127.066 171.158C127.985 170.49 128.629 169.657 127.912 168.59C127.158 167.468 126.202 167.934 125.264 168.553C124.338 169.166 123.376 169.804 122.334 170.159C118.712 171.403 115.42 169.65 115.138 165.918C114.685 159.942 113.9 153.935 115.034 147.941C115.304 146.531 115.328 145.134 115.046 143.693C113.122 133.936 115.8 125.146 120.875 116.902C121.317 116.192 121.838 114.953 122.879 115.413C123.977 115.897 123.382 117.092 123.014 117.834C120.158 123.657 120.085 129.823 120.563 136.087C120.63 136.976 121.255 138.14 119.876 138.747C118.871 139.188 118.491 140.059 119 141.003C119.643 142.179 120.74 141.781 121.703 141.419C125.417 140.022 129.217 139.581 133.115 140.445C134.402 140.727 135.634 141.248 136.909 141.573C138.613 142.014 139.128 141.658 139.477 139.562C140.789 131.735 139.244 123.645 142.027 115.946C142.934 121.034 145.729 125.949 142.597 131.312C140.85 134.303 140.771 137.772 140.973 141.144C141.102 143.289 140.752 144.888 138.625 145.808C137.522 146.286 136.566 147.126 137.295 148.407C138.049 149.731 139.183 149.173 140.182 148.523C141.12 147.916 142.046 147.273 143.026 146.733C144.375 145.992 144.675 145.158 144.307 143.509C143.572 140.193 143.897 136.81 145.03 133.574C145.662 131.772 146.759 130.375 149.388 129.988C147.825 136.081 149.836 141.989 149.033 147.929C148.837 149.381 148.395 150.705 147.605 151.913C147.108 152.673 146.741 153.384 145.49 152.575C144.013 151.612 143.179 152.599 143.186 154.125C143.198 157.594 143.32 161.063 143.406 164.533C143.431 165.605 143.976 166.353 145.049 166.341C146.195 166.328 146.538 165.464 146.514 164.422C146.495 163.711 146.514 162.994 146.483 162.277C146.367 159.464 146.41 157.135 149.125 154.873C152.612 151.98 152.808 147.328 152.404 142.946C152.03 138.882 151.521 134.873 152.49 130.785C153.005 128.615 151.454 127.494 149.462 126.936C148.696 126.721 147.341 127.598 147.243 126.17C147.17 125.103 148.487 124.95 149.266 124.576C156.431 121.162 163.976 119.195 171.932 118.98C174.481 118.913 177.031 119.042 179.581 119.091C180.488 119.109 182.02 119.176 181.757 118.147C180.862 114.708 184.049 114.095 185.434 112.293C186.495 110.908 187.678 110.258 185.888 108.089C184.221 106.072 185.471 102.824 185.036 99.4894C192.103 105.141 199.599 107.96 208.192 107.935C216.681 107.911 224.152 105.331 231.036 100.102C230.429 103.112 232.549 106.323 229.761 109.057C228.964 109.842 229.565 110.786 230.263 111.466C231.434 112.606 232.629 113.715 233.8 114.849C234.229 115.266 235.05 115.861 234.958 116.155C233.61 120.746 237.14 118.974 238.801 118.925C246.211 118.711 253.377 119.704 260.505 121.812C268.461 124.166 274.228 129.026 278.776 135.756C285.077 145.072 288.675 155.553 292.138 166.102C300.326 191.054 306.836 216.484 313.296 241.926C313.792 243.881 314.307 245.873 314.129 248.27C312.683 247.547 311.383 246.909 310.09 246.247C309.054 245.72 308.319 246.076 307.822 247.026C307.307 248 307.939 248.564 308.674 248.999C310.335 249.986 312.027 250.93 313.694 251.911C321.282 256.367 324.071 263.667 325.156 271.806C325.977 277.954 325.438 284.034 322.63 289.716C322.171 290.641 321.962 291.892 320.357 291.708C314.197 291.015 310.709 294.539 308.227 299.565C308.061 299.896 307.914 300.233 307.559 300.987C304.439 295.281 300.449 291.303 293.817 291.622C287.369 291.934 283.526 295.894 280.878 301.38C274.387 288.435 258.556 287.981 251.538 301.502C243.447 286.951 225.397 289.329 219.574 301.833C211.624 287.025 193.402 289.139 187.193 301.907C183.767 295.483 178.735 291.561 171.257 291.579C163.908 291.597 158.723 295.189 155.193 301.821C152.079 295.863 147.789 291.628 140.746 291.591C133.747 291.554 129.156 295.361 125.944 301.582C121.513 290.678 107.82 286.381 99.0491 300.76C97.6026 296.74 94.5196 294.288 91.8534 291.413C84.8293 283.825 83.4135 274.754 86.1042 264.923ZM133.318 239.53C138.742 232.971 140.685 225.537 142.432 217.189C143.756 224.85 144.326 231.758 145.024 238.653C145.196 240.351 144.528 240.492 143.143 240.345C140.041 240.02 136.922 239.824 133.318 239.53ZM303.881 325.504C303.789 324.493 303.936 323.653 305.279 323.72C306.891 323.8 305.996 325.093 306.357 325.614C306.192 326.601 306.701 327.766 305.144 327.723C303.458 327.68 303.961 326.43 303.881 325.504ZM301.209 320.454C301.331 320.87 301.221 321.085 300.749 320.981C297.715 321.024 294.669 320.938 291.641 321.146C289.38 321.299 288.184 320.766 288.589 318.241C288.656 317.806 288.289 317.303 288.123 316.831C286.781 316.684 286.033 317.266 285.929 318.633C286.198 320.166 286.235 321.238 284.01 321.183C281.743 321.128 282.319 319.859 282.435 318.627C282.404 314.76 282.362 310.892 282.355 307.025C282.355 306.424 282.472 305.805 282.613 305.216C284.262 298.119 289.361 293.651 295.196 294.165C300.909 294.668 305.812 300.423 306.216 307.337C306.388 310.279 306.186 313.24 306.155 316.188C306.192 317.371 306.186 318.554 306.278 319.724C306.394 321.293 305.512 321.25 304.427 320.962C303.979 321.042 303.832 320.877 304.01 320.448C303.961 319.424 303.918 318.4 303.869 317.377C302.312 316.384 301.454 316.868 301.197 318.639C301.197 319.24 301.203 319.847 301.209 320.454ZM301.356 325.67C301.307 326.944 301.227 327.845 299.579 327.717C298.065 327.6 296.532 327.692 295.006 327.692C295.006 327.704 295.006 327.711 295.006 327.723C293.584 327.723 292.156 327.655 290.74 327.741C289.275 327.833 288.497 327.539 288.534 325.786C288.564 324.211 289.018 323.629 290.63 323.69C293.572 323.806 296.526 323.806 299.474 323.727C300.958 323.69 301.411 324.229 301.356 325.67ZM282.288 325.308C282.116 323.537 283.324 323.714 284.47 323.77C286.548 323.506 285.929 325.063 286.051 326.148C286.254 327.962 284.973 327.613 283.906 327.704C281.847 327.895 282.392 326.405 282.288 325.308ZM270.808 319.007C270.986 320.797 270.342 321.287 268.632 321.183C266.401 321.048 264.152 321.158 261.915 321.146C259.88 321.134 257.324 321.827 257.992 318.167C258.102 317.561 257.685 316.917 256.974 316.874C256.171 316.819 255.62 317.291 255.522 318.118C255.454 318.719 255.467 319.338 255.503 319.951C255.565 320.889 255.123 321.165 254.241 321.171C253.321 321.177 252.935 320.828 252.99 319.914C253.291 314.95 252.371 309.918 253.579 305.002C255.27 298.125 260.854 293.712 267.149 294.153C273.333 294.582 278.825 300.227 279.303 307.025C279.573 310.868 279.315 314.747 279.291 318.609C279.695 320.258 279.499 321.563 277.36 321.06C275.883 320.711 273.088 322.611 273.352 318.927C273.388 318.425 273.333 317.916 273.327 317.407C271.409 316.231 270.618 317.076 270.808 319.007ZM270.802 325.853C270.808 327.337 270.33 327.821 268.877 327.717C267.363 327.606 265.837 327.692 264.317 327.692C264.317 327.698 264.317 327.704 264.317 327.717C262.999 327.717 261.682 327.68 260.364 327.729C259.064 327.778 257.992 327.833 258.004 325.939C258.016 324.223 258.543 323.616 260.284 323.696C263.116 323.831 265.96 323.849 268.792 323.72C270.514 323.641 270.796 324.346 270.802 325.853ZM254.278 327.692C252.543 327.662 253.107 326.405 253.033 325.516C252.947 324.548 252.99 323.671 254.406 323.77C255.963 323.874 255.307 325.032 255.497 325.768C255.387 326.62 255.822 327.717 254.278 327.692ZM275.699 323.77C277.035 324.113 279.34 322.378 279.518 325.59C279.683 328.501 277.703 327.521 276.306 327.704C274.908 327.631 273.192 328.342 273.241 325.712C273.272 323.745 274.277 323.402 275.699 323.77ZM237.827 321.14C235.632 320.962 233.383 320.883 231.207 321.152C228.29 321.514 227.119 320.539 227.707 317.622C226.132 316.194 225.268 316.856 224.771 318.615C225.139 320.184 225.078 321.177 222.914 321.171C220.732 321.165 220.689 320.172 221.1 318.596C221.027 315.446 220.861 312.29 220.904 309.139C221.002 300.638 227.291 294.19 235.424 294.141C243.594 294.086 250.042 300.362 250.367 308.796C250.502 312.259 250.355 315.734 250.441 319.203C250.477 320.613 250.116 321.312 248.583 321.171C247.572 321.079 246.542 321.091 245.525 321.165C243.815 321.293 242.442 321.183 242.798 318.842C242.914 318.063 242.84 317.07 241.774 316.911C240.566 316.733 240.272 317.689 240.058 318.621C240.579 320.582 239.892 321.306 237.827 321.14ZM240.223 325.682C240.199 326.969 240.101 327.852 238.452 327.723C236.938 327.606 235.406 327.698 233.88 327.698C233.88 327.704 233.88 327.711 233.88 327.723C232.556 327.723 231.226 327.625 229.92 327.747C228.284 327.901 227.517 327.478 227.548 325.639C227.573 323.911 228.357 323.653 229.81 323.702C232.654 323.794 235.504 323.819 238.348 323.727C239.862 323.671 240.254 324.278 240.223 325.682ZM224.906 326.221C225.066 328.109 223.674 327.576 222.651 327.711C220.671 327.968 220.941 326.613 220.867 325.4C220.745 323.371 222.167 323.788 223.331 323.763C225.458 323.549 224.814 325.124 224.906 326.221ZM244.765 323.739C245.776 323.702 246.794 323.788 247.805 323.739C249.344 323.665 250.508 323.665 250.459 325.872C250.41 328.054 249.104 327.686 247.823 327.698C247.315 327.704 246.812 327.698 246.12 327.698C245.2 327.398 243.803 328.403 242.963 327.092C242.044 325.657 243.079 323.8 244.765 323.739ZM207.279 321.14C205.072 320.968 202.817 320.889 200.629 321.159C197.68 321.52 196.559 320.484 197.135 317.591C195.547 316.175 194.708 316.935 194.193 318.615C194.971 321.097 193.519 321.226 191.655 321.134C189.964 321.048 187.953 321.52 188.787 318.627C188.75 315.176 188.603 311.72 188.689 308.269C188.879 300.558 195.321 294.282 203.062 294.141C210.938 294 217.723 300.178 218.054 307.962C218.207 311.511 218.017 315.072 217.98 318.627C218.642 320.944 217.367 320.981 215.51 321.195C212.305 321.563 212.158 319.878 212.464 317.567C210.883 316.212 210 316.85 209.51 318.603C210.086 320.613 209.357 321.306 207.279 321.14ZM209.706 325.676C209.663 326.957 209.54 327.845 207.91 327.723C206.396 327.613 204.864 327.698 203.338 327.698C203.338 327.704 203.338 327.717 203.338 327.723C202.014 327.723 200.69 327.631 199.378 327.747C197.766 327.888 196.982 327.539 197.018 325.651C197.049 323.898 197.827 323.671 199.262 323.708C202.106 323.788 204.956 323.8 207.8 323.727C209.265 323.684 209.749 324.229 209.706 325.676ZM194.426 325.706C194.432 328.035 193.096 327.747 191.355 327.655C190.381 327.502 188.572 328.501 188.585 325.762C188.591 323.432 189.896 323.671 191.312 323.776C192.648 323.874 194.426 323.016 194.426 325.706ZM214.75 323.757C216.037 324.021 218.134 322.654 218.158 325.7C218.176 328.385 216.473 327.57 215.382 327.686C213.721 327.754 212.286 328.158 212.323 325.768C212.354 323.819 213.242 323.451 214.75 323.757ZM183.73 327.772C181.916 327.87 181.836 326.957 181.8 325.553C181.757 324.027 182.345 323.641 183.773 323.69C185.226 323.739 186.354 323.855 185.796 325.572C186.176 327.521 185.189 327.692 183.73 327.772ZM181.867 317.536C180.261 316.163 179.44 316.96 178.919 318.603C179.366 320.276 179.146 321.299 176.988 321.14C174.776 320.975 172.514 320.901 170.32 321.152C167.378 321.496 165.968 320.638 166.569 317.512C165.104 316.439 163.798 316.647 164.006 318.584C164.307 321.385 162.756 321.281 160.911 321.159C160.403 321.128 159.882 321.091 159.385 321.165C157.087 321.508 156.1 320.797 156.345 318.241C156.725 314.294 156.02 310.291 156.75 306.344C158.165 298.732 164.773 293.571 172.312 294.184C179.924 294.803 185.692 300.871 185.857 308.563C185.918 311.505 185.722 314.459 185.643 317.407C185.833 319.314 186.746 321.679 183.179 321.109C180.543 320.687 182.504 318.646 181.867 317.536ZM179.164 325.7C179.133 326.993 178.95 327.845 177.331 327.717C175.817 327.594 174.285 327.692 172.759 327.692C172.759 327.698 172.759 327.711 172.759 327.717C171.435 327.717 170.117 327.674 168.8 327.729C167.476 327.784 166.47 327.803 166.501 325.909C166.526 324.192 166.991 323.592 168.757 323.684C171.594 323.831 174.451 323.819 177.288 323.72C178.821 323.678 179.195 324.315 179.164 325.7ZM163.988 325.651C164.049 327.907 162.762 327.772 161.291 327.692C160.893 327.674 160.488 327.686 159.937 327.686C158.925 327.478 157.491 328.244 156.658 327.22C156.198 326.656 156.369 325.48 156.455 324.603C156.547 323.641 157.424 323.763 158.11 323.751C159.22 323.733 160.323 323.776 161.432 323.739C162.793 323.702 163.933 323.61 163.988 325.651ZM152.404 327.735C150.872 327.686 151.319 326.589 151.288 325.792C151.245 324.842 150.97 323.665 152.612 323.727C154.071 323.782 153.709 324.842 153.777 325.682C153.722 326.632 154.071 327.784 152.404 327.735ZM151.276 317.469C149.633 316.182 148.898 317.076 148.444 318.646C149.039 320.423 148.579 321.25 146.538 321.128C144.338 320.993 142.088 320.877 139.913 321.152C136.879 321.539 135.414 320.668 136.002 317.438C134.396 316.267 133.624 317.003 133.256 318.646C134.169 321.71 131.951 321.06 130.339 321.091C128.653 321.128 126.594 321.545 127.483 318.609C127.433 315.054 127.231 311.493 127.372 307.944C127.685 300.252 133.606 294.123 140.519 294.123C147.396 294.129 153.372 300.319 153.722 307.962C153.85 310.696 153.66 313.448 153.611 316.194C153.617 317.616 153.63 319.032 153.636 320.454C153.758 320.87 153.654 321.085 153.182 320.981C149.633 321.391 152.024 318.578 151.276 317.469ZM148.714 325.927C148.745 327.521 147.991 327.784 146.667 327.711C145.251 327.631 143.835 327.692 142.413 327.692C142.413 327.698 142.413 327.711 142.413 327.717C140.997 327.717 139.575 327.655 138.166 327.735C136.768 327.815 135.935 327.668 135.935 325.86C135.935 324.07 136.548 323.616 138.215 323.69C141.046 323.812 143.884 323.825 146.716 323.727C148.432 323.659 148.683 324.474 148.714 325.927ZM133.501 325.633C133.581 328.238 131.908 327.655 130.296 327.68C129.248 327.361 127.299 328.667 127.243 325.841C127.188 323.23 128.813 323.69 130.247 323.776C131.558 323.861 133.422 322.936 133.501 325.633ZM122.395 327.76C120.679 327.839 120.716 326.914 120.685 325.7C120.655 324.401 120.814 323.629 122.45 323.684C123.97 323.733 124.792 324.094 124.449 325.768C124.804 327.502 123.848 327.692 122.395 327.76ZM115.996 321.14C113.778 320.962 111.516 320.883 109.316 321.152C106.233 321.539 104.792 320.625 105.423 317.377C103.425 316.212 102.898 317.193 102.904 319.062C102.904 319.994 103.315 321.232 101.593 321.159C99.7907 321.085 100.52 319.73 100.502 318.909C100.434 315.446 100.447 311.983 100.514 308.52C100.539 307.313 100.71 306.087 100.998 304.91C102.745 297.837 107.661 293.614 113.434 294.153C119.073 294.674 124.001 300.307 124.381 307.031C124.596 310.88 124.369 314.76 124.338 318.627C124.436 319.847 125.055 321.171 122.763 321.171C120.924 321.171 120.532 320.49 120.74 318.915C120.802 318.431 120.71 317.922 120.691 317.426C119.116 316.341 118.313 316.954 118.007 318.646C118.424 320.349 118.105 321.306 115.996 321.14ZM118.227 325.645C118.264 327.582 117.363 327.815 115.825 327.711C114.507 327.625 113.183 327.692 111.865 327.692C111.865 327.704 111.865 327.711 111.865 327.723C110.443 327.723 109.015 327.655 107.599 327.741C106.165 327.827 105.399 327.588 105.374 325.823C105.344 323.935 106.134 323.641 107.728 323.696C110.468 323.8 113.214 323.788 115.953 323.733C117.345 323.708 118.191 323.849 118.227 325.645ZM101.66 327.698C100.134 327.729 100.6 326.607 100.477 325.78C100.679 325.057 99.993 323.861 101.507 323.763C103.113 323.665 102.892 324.818 102.886 325.804C102.886 326.687 103.082 327.674 101.66 327.698ZM79.0801 304.309C79.5398 301.876 80.4102 299.602 81.9547 297.641C85.5894 293.025 90.6644 293.019 94.3174 297.647C96.1868 300.025 97.241 302.777 97.4923 305.786C97.8478 310.052 97.811 314.331 97.4862 318.603C97.9765 320.319 97.6762 321.398 95.5432 321.116C94.9425 321.036 94.299 320.993 93.7167 321.116C90.4621 321.802 89.6285 320.227 90.1189 317.358C88.5314 316.304 87.7591 316.942 87.5017 318.627C87.5017 319.234 87.5078 319.841 87.5078 320.448C87.6365 320.864 87.5139 321.073 87.0481 320.969C84.9213 321.011 82.7883 320.932 80.6799 321.134C78.5346 321.336 78.2956 320.307 78.7001 318.633C78.553 313.852 78.1853 309.059 79.0801 304.309ZM97.762 325.774C97.7681 327.845 96.6403 327.784 95.2429 327.698C94.7403 327.668 94.2316 327.692 93.4899 327.692C92.546 327.104 90.223 329.096 90.1311 326.001C90.0821 324.358 90.456 323.488 92.2886 323.702C93.2877 323.819 94.3174 323.806 95.3287 323.745C96.8181 323.647 97.762 323.812 97.762 325.774ZM87.7039 325.7C87.7101 328.042 86.3739 327.735 84.9519 327.698C84.3451 327.68 83.7322 327.698 83.1254 327.698C82.108 327.698 81.0905 327.637 80.0792 327.711C78.5346 327.827 78.5285 326.865 78.5408 325.768C78.5592 324.713 78.455 323.69 80.024 323.751C81.6483 323.812 83.2725 323.763 84.8968 323.77C86.2636 323.77 87.6978 323.298 87.7039 325.7ZM70.0089 305.174C69.5369 303.948 70.4686 303.917 71.1735 303.592C71.7741 303.316 72.1051 302.783 71.9151 302.103C71.7251 301.429 71.1612 301.214 70.4992 301.177C69.5921 301.128 68.6789 301.042 67.7717 300.969C66.5582 300.877 65.5407 300.411 65.3017 299.124C65.0749 297.917 65.7123 296.979 66.6133 296.219C69.396 293.884 75.6723 294.754 77.6827 297.72C78.0627 298.284 78.1853 298.762 77.8911 299.394C75.421 304.677 76.0155 310.328 75.942 316.703C72.9693 312.853 71.4799 309.023 70.0089 305.174ZM61.5506 323.69C64.6091 323.751 67.6675 323.757 70.726 323.659C72.4483 323.604 72.3625 324.603 72.4177 325.811C72.479 327.208 72.1173 327.895 70.5667 327.778C69.0466 327.662 67.5082 327.754 65.982 327.754C65.982 327.747 65.982 327.735 65.982 327.729C64.5539 327.729 63.1197 327.637 61.7038 327.754C60.0734 327.888 59.5831 327.245 59.6015 325.657C59.6138 324.199 60.0918 323.665 61.5506 323.69ZM58.4799 336.01C58.7741 330.837 58.5595 330.824 63.8368 330.824C157.27 330.824 250.704 330.824 344.132 330.824C348.214 330.824 348.214 330.824 348.22 334.771C348.22 335.384 348.128 336.01 348.232 336.604C348.68 339.099 347.552 339.583 345.229 339.577C297.899 339.509 250.575 339.528 203.246 339.528C156.222 339.528 109.199 339.503 62.1819 339.595C59.3318 339.601 58.3021 339.093 58.4799 336.01ZM248.51 446.66C233.42 446.617 218.324 446.636 203.233 446.636C188.241 446.636 173.249 446.617 158.263 446.66C156.566 446.666 155.469 446.685 155.53 444.35C155.585 442.21 156.13 441.677 158.263 441.683C188.346 441.757 218.434 441.757 248.516 441.683C250.643 441.677 251.201 442.204 251.256 444.35C251.305 446.685 250.208 446.666 248.51 446.66ZM248.326 439.195C233.236 439.14 218.146 439.164 203.056 439.164C188.168 439.164 173.28 439.134 158.392 439.201C156.474 439.207 155.542 439.054 155.518 436.682C155.493 434.193 156.627 434.23 158.441 434.23C188.419 434.267 218.397 434.273 248.375 434.224C250.257 434.224 251.256 434.31 251.256 436.725C251.256 439.183 250.171 439.207 248.326 439.195ZM248.105 431.564C233.126 431.533 218.14 431.546 203.16 431.546C188.382 431.546 173.605 431.546 158.821 431.539C157.185 431.539 155.493 432.116 155.505 429.167C155.511 426.434 156.841 426.612 158.674 426.618C188.536 426.642 218.397 426.642 248.265 426.618C250.005 426.618 251.231 426.452 251.274 429.02C251.311 431.772 249.92 431.564 248.105 431.564ZM158.417 388.935C173.513 388.991 188.609 388.966 203.705 388.966C218.599 388.966 233.487 388.99 248.381 388.929C250.263 388.923 251.262 389.021 251.262 391.43C251.262 393.845 250.251 393.925 248.375 393.918C218.391 393.863 188.401 393.857 158.417 393.9C156.535 393.9 155.536 393.814 155.53 391.405C155.511 388.966 156.566 388.929 158.417 388.935ZM155.548 383.48C155.634 381.482 155.689 380.459 158.263 380.465C188.352 380.575 218.446 380.575 248.534 380.465C251.145 380.453 251.109 381.562 251.225 383.505C251.366 385.834 250.625 386.392 248.357 386.379C233.365 386.281 218.366 386.33 203.374 386.33C188.382 386.33 173.384 386.275 158.392 386.386C156.057 386.404 155.456 385.742 155.548 383.48ZM251.244 399.03C251.293 401.335 250.263 401.378 248.528 401.371C233.438 401.329 218.342 401.347 203.252 401.347C188.26 401.347 173.274 401.335 158.282 401.365C156.627 401.371 155.432 401.47 155.524 399.073C155.603 396.989 156.063 396.382 158.233 396.388C188.315 396.468 218.397 396.462 248.479 396.388C250.588 396.382 251.201 396.854 251.244 399.03ZM158.435 404.001C188.401 404.044 218.366 404.038 248.332 404.001C250.171 404.001 251.268 404.019 251.262 406.489C251.256 408.935 250.189 408.984 248.338 408.978C233.359 408.923 218.373 408.947 203.393 408.947C188.413 408.947 173.427 408.923 158.447 408.978C156.602 408.984 155.524 408.947 155.524 406.496C155.511 404.038 156.584 403.995 158.435 404.001ZM248.295 416.554C218.317 416.517 188.333 416.511 158.355 416.572C156.357 416.578 155.579 416.29 155.518 413.998C155.456 411.436 156.719 411.595 158.472 411.601C173.464 411.638 188.45 411.626 203.442 411.626C218.434 411.626 233.42 411.656 248.412 411.589C250.349 411.583 251.237 411.773 251.256 414.12C251.28 416.633 250.091 416.56 248.295 416.554ZM251.25 421.72C251.317 424.086 250.183 424.025 248.504 424.019C233.414 423.982 218.317 424.001 203.227 424.001C188.235 424.001 173.249 423.982 158.257 424.025C156.553 424.031 155.475 424.037 155.53 421.708C155.579 419.551 156.149 419.048 158.27 419.048C188.352 419.122 218.434 419.122 248.516 419.048C250.655 419.042 251.182 419.588 251.25 421.72ZM341.888 352.142C341.68 359.889 341.827 367.655 341.809 375.408C341.803 376.609 342.354 378.001 340.062 378.062C337.61 378.13 338.119 376.665 338.101 375.316C338.082 374.299 338.107 373.275 338.076 372.258C338.052 371.485 337.77 370.799 336.899 370.756C335.833 370.701 335.551 371.467 335.514 372.374C335.508 372.478 335.52 372.583 335.502 372.681C335.189 374.409 336.476 376.75 334.803 377.756C333.522 378.528 331.432 377.964 329.704 377.989C329.501 377.995 329.293 377.989 329.091 377.989C324.242 377.989 324.242 377.989 324.04 373.165C323.997 372.178 324.261 370.811 322.833 370.793C321.172 370.768 321.509 372.276 321.472 373.33C321.3 377.995 321.313 377.995 316.55 377.989C316.244 377.989 315.937 377.989 315.631 377.989C310.384 377.989 310.378 377.995 310.004 372.822C309.937 371.89 310.004 370.805 308.748 370.774C307.504 370.75 307.497 371.798 307.418 372.754C306.983 377.989 306.97 377.989 301.558 377.989C301.148 377.989 300.743 377.989 300.332 377.989C296.005 377.989 296.011 377.989 295.95 373.698C295.938 372.987 295.926 372.264 295.785 371.577C295.674 371.056 295.227 370.738 294.663 370.738C294.099 370.744 293.676 371.056 293.535 371.584C293.406 372.068 293.413 372.589 293.388 373.097C293.149 377.989 293.149 377.989 288.111 377.989C287.804 377.989 287.498 377.989 287.191 377.989C282.19 377.989 282.19 377.989 281.92 373.079C281.865 372.092 282.08 370.762 280.609 370.781C279.174 370.799 279.371 372.092 279.322 373.097C279.089 377.989 279.089 377.989 274.069 377.989C273.762 377.989 273.456 377.989 273.149 377.989C268.209 377.989 268.215 377.989 267.903 373.055C267.841 372.074 268.05 370.732 266.573 370.774C265.188 370.811 265.31 372.062 265.261 373.097C265.022 377.989 265.01 377.989 260.002 377.989C259.696 377.989 259.389 377.989 259.083 377.989C254.051 377.989 254.051 377.989 253.763 373.146C253.701 372.123 253.824 370.86 252.353 370.952C250.9 371.044 251.195 372.337 251.158 373.324C250.998 377.995 250.998 377.995 246.291 377.995C217.208 377.995 188.125 377.958 159.042 378.056C156.32 378.068 155.101 377.468 155.609 374.63C155.714 374.035 155.603 373.41 155.628 372.797C155.665 371.774 155.444 370.86 154.218 370.934C153.188 370.995 153.072 371.884 153.005 372.748C152.876 374.44 153.826 376.812 152.545 377.651C151.239 378.503 149.002 377.94 147.176 377.989C146.869 377.995 146.563 377.989 146.256 377.989C141.629 377.989 141.641 377.989 141.512 373.49C141.482 372.429 141.868 370.866 140.305 370.811C138.435 370.744 138.987 372.472 138.889 373.594C138.822 374.305 138.815 375.028 138.895 375.733C139.085 377.369 138.619 378.142 136.768 378.025C134.329 377.866 131.865 377.878 129.425 378.025C127.728 378.123 127.286 377.461 127.44 375.923C127.544 374.912 127.464 373.882 127.458 372.865C127.452 371.933 127.489 370.854 126.257 370.774C124.994 370.689 124.982 371.743 124.847 372.693C124.602 374.427 125.846 376.757 124.16 377.762C122.867 378.528 120.783 377.964 119.055 377.989C118.748 377.995 118.442 377.989 118.135 377.989C113.508 377.989 113.526 377.989 113.391 373.459C113.361 372.417 113.814 370.86 112.184 370.799C110.529 370.738 110.878 372.288 110.842 373.336C110.67 377.982 110.682 377.982 105.902 377.982C105.595 377.982 105.289 377.982 104.982 377.982C99.7662 377.982 99.754 377.982 99.3678 372.803C99.3004 371.878 99.374 370.781 98.1052 370.768C96.861 370.756 96.861 371.81 96.7813 372.76C96.3523 377.982 96.34 377.982 90.9095 377.982C90.4989 377.982 90.0943 377.982 89.6837 377.982C85.3748 377.982 85.381 377.982 85.3135 373.68C85.3013 372.969 85.289 372.245 85.1358 371.559C85.0255 371.044 84.5719 370.719 84.008 370.732C83.4441 370.744 83.0274 371.063 82.8925 371.59C82.7699 372.074 82.7699 372.595 82.7454 373.104C82.5064 377.976 82.5064 377.976 77.7562 377.982C77.3456 377.982 76.941 377.982 76.5304 377.982C71.5535 377.982 71.5535 377.982 71.2776 373.055C71.2225 372.068 71.4431 370.738 69.9599 370.768C68.5256 370.799 68.7095 372.092 68.6911 373.091C68.6727 374.109 68.5992 375.138 68.7095 376.15C68.8689 377.664 68.2314 378.007 66.8033 378.031C65.2771 378.056 64.9278 377.504 64.9339 376.095C64.9891 367.728 64.9952 359.356 64.94 350.989C64.9278 349.537 65.3323 348.93 66.8217 349.108C67.6246 349.206 68.4521 349.12 69.2673 349.12C114.066 349.12 158.864 349.12 203.662 349.12C248.663 349.12 293.67 349.138 338.671 349.065C341.086 349.065 341.962 349.457 341.888 352.142ZM340.381 346.025C338.867 345.871 337.322 345.982 335.79 345.982C246.31 345.982 156.829 345.982 67.3427 345.982C67.0362 345.982 66.7236 345.951 66.4233 346C64.5294 346.301 63.6652 345.142 63.6958 343.585C63.7326 341.74 65.3752 342.672 66.2272 342.672C111.939 342.623 157.65 342.629 203.356 342.629C249.068 342.629 294.779 342.623 340.485 342.672C341.355 342.672 342.992 341.765 343.059 343.549C343.133 345.075 342.318 346.221 340.381 346.025ZM271.243 270.035C271.709 271.8 272.775 273.725 274.479 273.731C277.483 273.737 280.278 274.595 283.158 275.036C285.132 275.337 286.885 273.847 288.595 274.184C293.265 275.104 294.124 274.865 295.748 270.452C298.733 262.349 301.589 254.197 304.647 246.119C308.552 235.791 308.503 235.57 299.848 228.552C295.999 225.432 291.893 224.531 287.351 226.609C285.218 227.584 283.25 227.621 280.946 227.118C271.917 225.144 263.747 231.494 263.913 240.412C263.949 240.964 263.876 241.81 264.072 242.588C266.444 251.739 268.834 260.89 271.243 270.035ZM292.334 270.458C292.095 271.101 291.88 271.978 290.992 271.696C290.152 271.426 289.741 270.402 289.931 269.704C291.053 265.609 292.211 261.521 293.603 257.513C294.246 255.662 295.895 257.396 297.513 256.403C295.613 261.564 293.976 266.014 292.334 270.458ZM279.744 230.127C282.968 230.802 285.776 230.936 288.797 229.398C291.899 227.823 294.865 228.669 297.611 230.796C305.027 236.545 305.064 236.508 301.65 245.034C300.78 247.203 299.94 249.392 298.941 251.5C298.261 252.928 297.041 254.43 295.398 253.412C293.976 252.53 295.153 251.034 295.76 249.9C296.287 248.913 297.004 248.019 297.433 246.995C298.273 244.985 298.101 243.164 295.895 242.086C293.235 240.78 291.261 238.794 289.864 236.208C289.337 235.233 288.773 234.375 287.522 235.209C286.413 235.95 286.652 236.876 287.185 237.875C288.613 240.553 290.636 242.662 293.204 244.243C294.111 244.801 295.172 245.236 294.16 246.505C291.108 250.354 291.292 255.294 289.723 259.646C288.301 263.599 287.571 267.798 285.285 272.241C285.285 264.255 285.304 257.151 285.267 250.047C285.261 248.644 286.021 248.662 287.032 248.748C288.148 248.846 289.508 249.024 289.625 247.436C289.753 245.659 288.252 245.806 287.05 245.604C284.188 245.107 281.35 245.457 278.519 245.812C277.379 245.959 276.122 246.296 276.355 247.81C276.563 249.14 277.752 249.22 278.776 248.926C281.926 248.031 282.129 249.575 282.043 252.193C281.841 258.506 281.975 264.837 281.975 271.163C280.333 271.254 280.535 270.304 280.406 269.563C279.358 263.648 278.341 257.727 277.213 251.831C277.011 250.789 277.219 248.993 275.325 249.293C273.395 249.6 273.86 251.083 274.118 252.432C275.105 257.635 276.073 262.845 276.962 268.061C277.127 269.042 277.795 270.501 276.122 270.838C274.804 271.101 274.479 269.851 274.222 268.882C271.838 259.725 269.153 250.636 267.229 241.381C265.794 234.43 272.426 228.601 279.744 230.127ZM248.105 145.489C247.94 176.246 242.473 206.027 231.704 234.841C231.452 235.509 231.262 236.214 230.882 236.802C230.41 237.538 229.699 237.924 228.792 237.464C227.897 237.011 227.775 236.318 228.106 235.417C229.062 232.843 230.024 230.275 230.919 227.676C241.817 195.988 246.469 163.423 244.563 129.945C244.471 128.315 244.428 126.685 244.348 125.054C244.299 123.976 244.336 122.836 245.764 122.885C246.947 122.928 247.437 123.816 247.48 125.005C247.664 130.203 247.909 135.394 248.099 140.592C248.154 142.228 248.105 143.859 248.105 145.489ZM269.006 138.416C269.012 137.172 268.583 135.437 270.624 135.437C272.751 135.437 272.144 137.276 272.156 138.441C272.383 163.969 274.155 189.38 277.538 214.682C277.832 216.901 278.188 219.119 278.561 221.326C278.77 222.558 278.653 223.704 277.287 224.023C275.57 224.421 275.601 222.969 275.466 221.908C274.308 213.015 273.008 204.14 272.083 195.222C270.734 182.234 269.797 169.215 268.994 156.154C268.988 150.245 268.969 144.331 269.006 138.416ZM262.944 136.927C261.455 162.976 255.614 188.02 245.684 212.126C245.372 212.88 245.102 213.646 244.74 214.375C244.354 215.154 243.821 215.742 242.81 215.307C241.89 214.909 241.7 214.149 241.897 213.297C242.056 212.61 242.35 211.948 242.62 211.292C252.819 186.72 258.66 161.168 259.886 134.573C259.935 133.451 260.045 132.336 260.149 131.22C260.241 130.227 260.866 129.762 261.798 129.823C262.736 129.884 263.3 130.485 263.269 131.435C263.202 133.268 263.055 135.094 262.944 136.927ZM251.985 275.71C252.476 274.368 253.493 274.485 254.743 274.956C275.007 282.692 294.785 281.582 314.056 271.61C315.104 271.071 316.201 270.513 316.936 271.904C317.825 273.584 316.305 274.006 315.288 274.552C304.482 280.35 292.922 283.102 280.688 283.133C272.04 283.164 263.68 281.588 255.559 278.677C254.89 278.438 254.216 278.187 253.573 277.899C252.629 277.469 251.519 276.985 251.985 275.71ZM111.534 255.502C112.625 253.155 114.403 255.098 115.647 255.717C126.477 261.111 137.357 266.382 148.978 269.924C155.334 271.861 161.806 273.118 168.42 273.688C169.572 273.786 170.761 273.884 170.822 275.422C170.865 276.446 169.97 276.918 168.297 276.85C156.063 275.956 144.528 272.401 133.367 267.546C126.937 264.751 120.636 261.656 114.348 258.549C113.122 257.942 110.462 257.807 111.534 255.502ZM260.676 193.168C258.691 208.387 256.429 223.808 253.898 239.186C253.37 242.404 252.874 245.622 252.298 248.834C252.096 249.962 252.187 251.598 250.336 251.261C248.62 250.948 249.006 249.588 249.203 248.337C251.409 234.252 253.603 220.161 255.755 206.07C256.429 201.639 256.944 197.183 257.557 192.745C257.722 191.538 258.255 190.478 259.708 190.76C260.842 190.968 260.946 191.942 260.676 193.168ZM158.809 161.983C158.833 163.203 158.815 164.428 158.815 165.648C157.473 183.429 155.867 201.173 153.783 218.874C153.63 220.18 153.47 221.448 151.779 221.314C149.952 221.167 150.59 219.696 150.688 218.721C151.766 207.474 152.956 196.233 153.997 184.98C154.647 177.986 155.088 170.968 155.634 163.963C155.695 163.154 155.708 162.332 155.904 161.554C156.106 160.763 156.792 160.524 157.583 160.567C158.509 160.61 158.791 161.198 158.809 161.983ZM286.241 165.489C286.241 164.251 286.131 162.7 287.761 162.633C289.68 162.553 289.478 164.22 289.478 165.55C289.478 182.387 289.956 199.206 291.494 215.975C291.512 216.177 291.562 216.392 291.519 216.582C291.249 217.789 292.579 219.812 290.25 219.977C288.062 220.137 288.54 218.145 288.411 216.821C287.388 206.26 286.848 195.669 286.235 185.065C286.241 178.544 286.241 172.016 286.241 165.489ZM264.624 220.284C264.617 212.543 264.618 204.802 264.618 197.06C264.924 197.06 265.237 197.06 265.543 197.06C265.543 189.117 265.518 181.167 265.568 173.224C265.574 171.998 265.249 170.239 267.333 170.38C269.116 170.502 268.785 172.041 268.761 173.218C268.43 188.902 268.081 204.587 267.731 220.272C267.707 221.467 267.952 222.999 266.162 222.999C264.354 223.005 264.624 221.479 264.624 220.284ZM230.184 119.612C230.527 119.9 230.858 120.476 230.821 120.899C230.729 122.143 229.675 122.4 228.682 122.707C221.934 124.791 215.051 125.912 207.971 125.79C201.002 125.894 194.211 124.828 187.561 122.774C186.378 122.407 184.883 122.155 185.275 120.543C185.753 118.564 187.377 119.409 188.548 119.765C201.566 123.694 214.566 123.663 227.579 119.728C228.406 119.477 229.338 118.901 230.184 119.612ZM135.677 254.779C136.45 253.222 137.706 253.927 138.822 254.454C146.857 258.267 155.315 260.13 164.215 259.922C165.459 259.891 166.949 259.768 167.022 261.435C167.096 263.158 165.563 263.078 164.337 263.115C163.118 263.146 161.898 263.121 160.672 263.121C152.526 262.778 144.81 260.773 137.449 257.323C136.419 256.839 134.838 256.477 135.677 254.779ZM105.221 264.016C104.633 262.87 104.835 262.018 105.987 261.521C107.336 260.939 107.777 262.061 108.243 262.937C111.43 268.981 115.714 274.098 121.127 278.266C122.334 279.198 123.633 280.013 124.89 280.877C125.491 281.294 126.005 281.772 125.999 282.587C125.546 283.825 124.816 284.549 123.48 283.721C115.592 278.83 109.481 272.284 105.221 264.016ZM235.099 274.834C235.295 274.196 235.767 273.823 236.35 273.872C237.281 273.792 237.79 274.362 238.36 274.76C242.356 277.592 246.622 279.933 251.164 281.76C252.371 282.244 253.64 282.728 252.966 284.31C252.347 285.756 251.066 285.125 250.061 284.72C245.139 282.741 240.499 280.24 236.209 277.102C235.43 276.532 234.762 275.907 235.099 274.834ZM197.521 113.599C197.852 112.416 198.735 112.232 199.936 112.557C204.606 113.807 209.332 114.003 214.088 112.998C215.192 112.765 216.209 112.906 216.528 114.15C216.938 115.775 215.67 115.971 214.56 116.118C212.256 116.431 209.939 116.676 207.628 116.952C204.76 116.725 201.94 116.424 199.188 115.658C198.165 115.37 197.153 114.898 197.521 113.599ZM184.043 57.0446C183.314 57.8782 182.688 58.6382 181.536 57.8353C180.151 56.8669 180.966 55.8678 181.622 54.9852C184.46 51.1667 188.248 49.1195 191.582 49.0276C197.245 48.9663 200.745 50.5722 203.607 53.5939C204.294 54.3232 205.078 55.2365 204.018 56.211C203.099 57.0569 202.283 56.6401 201.37 55.8923C194.757 50.4496 189.529 50.8051 184.043 57.0446ZM212.415 56.162C211.349 55.0281 212.354 54.0903 213.126 53.3119C215.89 50.5231 219.237 49.0399 223.576 48.9786C228.081 49.0644 231.979 51.0931 234.885 55.022C235.577 55.9536 236.233 56.9465 234.885 57.8659C233.702 58.6688 233.083 57.7985 232.384 57.0078C226.935 50.8541 221.413 50.4189 215.271 55.7084C214.327 56.5052 213.426 57.2407 212.415 56.162ZM219.807 86.6671C220.322 87.9052 219.905 88.7817 218.458 89.131C215.437 89.8604 212.378 89.1985 209.859 89.4559C206.807 89.4559 204.263 89.4681 201.72 89.4498C200.763 89.4436 199.875 89.2414 199.593 88.132C199.329 87.0839 199.439 86.0971 200.279 85.3371C201.186 84.5157 201.989 84.9816 202.67 85.6864C203.43 86.4771 204.404 86.3484 205.244 86.2013C209.246 85.4964 213.561 87.8071 217.398 84.6322C218.544 83.676 219.366 85.6006 219.807 86.6671ZM185.606 63.5048C185.771 62.4996 186.544 62.2544 187.414 62.2483C189.345 62.2299 191.269 62.2422 193.2 62.2422C193.2 62.187 193.2 62.1319 193.2 62.0828C195.026 62.0828 196.853 62.1196 198.679 62.0706C199.758 62.0399 200.543 62.4873 200.702 63.4925C200.843 64.369 200.126 64.7735 199.354 65.2394C195.137 67.7769 190.987 67.7217 186.721 65.3681C185.869 64.8961 185.459 64.418 185.606 63.5048ZM230.925 63.6703C230.968 64.3139 230.815 64.9513 230.135 65.1658C227.946 65.84 226.095 67.6298 223.693 67.0781C220.984 67.3723 218.863 66.0668 216.663 65.0432C215.964 64.7184 215.553 64.0993 215.792 63.3025C216.013 62.5793 216.522 62.0828 217.349 62.0951C221.419 62.1502 225.482 62.1931 229.552 62.3035C230.312 62.3219 230.87 62.8245 230.925 63.6703ZM205.287 73.428C207.787 73.0541 206.831 75.2668 206.788 76.7194C207.879 76.7194 208.891 76.7316 209.902 76.7132C210.95 76.6949 212.268 77.081 211.778 75.1074C211.606 74.427 212.084 73.7406 212.967 73.6364C213.77 73.5383 214.407 73.8325 214.671 74.5803C215.13 75.8735 216.356 77.1362 215.492 78.5581C214.75 79.7779 213.316 79.8575 211.949 79.833C209.816 79.7962 207.683 79.735 205.556 79.8514C203.852 79.9433 202.817 78.9749 202.952 77.6204C203.123 76.0329 203.399 73.7099 205.287 73.428ZM214.72 92.3979C214.664 93.4337 213.831 93.9118 212.764 93.8934C211.44 93.8689 210.117 93.8873 208.793 93.8812C207.365 93.875 205.936 93.8812 204.514 93.875C203.436 93.8689 202.737 93.3663 202.749 92.2385C202.762 91.2456 203.423 90.8043 204.361 90.7982C207.211 90.7859 210.068 90.792 212.918 90.7859C214.009 90.7859 214.781 91.3498 214.72 92.3979ZM181.941 27.0728C183.191 24.713 185.195 23.5239 188.064 23.4197C190.08 24.4249 191.435 23.3401 192.624 21.581C192.998 21.0232 193.684 20.4471 194.309 20.3306C198.318 19.589 202.345 18.5225 206.372 18.5102C208.253 18.5041 210.178 17.6705 212.004 18.3202C214.413 19.1783 216.62 19.9813 219.415 19.5583C222.203 19.1293 223.687 22.482 225.85 23.4504C227.842 24.3391 230.809 23.0888 232.911 25.0256C233.432 25.5037 233.959 26.0369 234.284 26.6498C234.83 27.6857 235.816 28.9422 234.431 29.8983C233.021 30.8729 232.323 29.7267 231.673 28.5499C230.557 26.5395 228.854 25.8837 226.819 27.1402C225.127 28.1821 224.201 27.9063 223.215 26.1227C221.112 22.3226 220.346 22.1449 216.295 23.8733C215.093 24.3882 214.438 23.812 213.696 22.9846C212.482 21.6239 211.201 20.4839 209.424 22.4146C208.737 23.1623 207.616 23.0765 206.935 22.3349C205.268 20.5084 204.024 21.6239 202.884 22.8497C201.971 23.8304 201.29 24.4801 199.813 23.6097C197.043 21.9671 195.216 22.4758 193.635 25.4363C192.538 27.4834 191.637 28.4886 189.247 26.9686C187.347 25.755 185.698 26.8337 184.717 28.6602C184.123 29.7635 183.504 30.7135 182.18 29.9841C180.813 29.2486 181.413 28.0718 181.941 27.0728ZM242.368 305.823C238.36 302.36 234.063 301.858 229.411 304.444C228.676 304.855 227.83 305.149 227.352 304.095C226.935 303.182 227.462 302.611 228.192 302.072C232.206 299.081 240.285 299.853 243.797 303.568C244.219 304.021 244.667 304.42 244.624 305.155C244.195 306.369 243.459 306.767 242.368 305.823ZM179.452 304.021C178.937 305.278 177.981 304.787 177.166 304.346C172.728 301.937 168.579 302.366 164.711 305.578C163.964 306.197 163.21 306.835 162.419 305.737C161.69 304.72 162.425 304.027 163.142 303.421C165.649 301.312 168.524 300.197 172.275 300.209C174.132 300.117 176.234 300.822 178.239 301.888C179.103 302.348 179.906 302.918 179.452 304.021ZM209.363 304.364C204.833 301.882 200.622 302.409 196.718 305.725C196.026 306.314 195.351 306.645 194.622 305.829C193.874 304.996 194.334 304.352 194.977 303.758C197.552 301.38 200.586 300.203 204.803 300.215C206.372 300.19 208.48 300.797 210.441 301.95C211.238 302.415 212.194 302.863 211.661 304.003C211.146 305.131 210.245 304.849 209.363 304.364ZM272.015 305.529C268.602 302.36 264.918 301.833 260.897 304.346C260.155 304.812 259.279 305.082 258.727 304.26C258.053 303.267 258.758 302.562 259.598 302.029C261.535 300.803 263.618 300.099 264.991 300.166C269.055 300.24 271.642 301.471 273.842 303.623C274.608 304.371 274.902 305.198 274.081 306.001C273.266 306.804 272.622 306.093 272.015 305.529ZM147.801 302.52C148.046 302.82 148.193 303.194 148.34 303.457C148.04 304.818 147.2 305.106 146.275 304.53C141.935 301.809 138.006 302.293 134.402 305.866C133.918 306.35 133.336 306.546 132.772 306.099C132.128 305.59 132.104 304.904 132.453 304.174C134.464 299.933 144.761 298.818 147.801 302.52ZM117.357 304.291C113.637 301.79 110.315 302.471 107.293 305.529C106.68 306.148 106.024 306.724 105.227 306.001C104.363 305.21 104.743 304.377 105.442 303.635C107.471 301.471 109.922 300.24 112.913 300.184C115.034 300.111 116.873 300.865 118.601 301.992C119.429 302.532 120.134 303.218 119.502 304.211C118.957 305.075 118.068 304.769 117.357 304.291ZM302.006 304.91C301.993 305.56 301.761 305.976 301.246 306.203C300.719 306.436 300.234 306.301 299.867 305.909C296.661 302.464 293.131 301.68 289.085 304.475C288.472 304.898 287.719 304.904 287.228 304.156C286.83 303.549 287.081 303.01 287.486 302.501C290.397 298.836 299.67 299.902 301.748 304.15C301.877 304.413 301.944 304.714 302.006 304.91ZM81.826 304.211C83.7261 300.025 90.4314 298.879 93.6002 302.238C93.9312 302.587 94.1825 303.016 94.4154 303.341C94.0538 304.634 93.208 305.198 92.3438 304.481C88.9053 301.631 86.2268 302.697 83.7935 305.842C83.3767 306.375 82.7577 306.51 82.1693 306.081C81.495 305.584 81.4767 304.99 81.826 304.211ZM324.868 304.101C325.352 304.763 325.376 305.437 324.702 305.989C324.003 306.565 323.372 306.35 322.857 305.701C320.485 302.697 317.837 301.612 314.564 304.432C313.921 304.983 313.155 304.794 312.671 304.174C312.131 303.482 312.493 302.838 313.081 302.317C314.577 300.993 316.262 300.129 317.635 300.184C321.27 300.221 323.237 301.882 324.868 304.101Z" fill="#C6C6C6"/>
</svg>
