<svg width="55" height="55" viewBox="0 0 55 55" fill="none" xmlns="http://www.w3.org/2000/svg">
<g id="Group">
<g id="Group_2">
<g id="Group_3">
<path id="Vector" d="M27.5 55C42.6878 55 55 42.6878 55 27.5C55 12.3122 42.6878 0 27.5 0C12.3122 0 0 12.3122 0 27.5C0 42.6878 12.3122 55 27.5 55Z" fill="#CCCCCC"/>
<g id="Group_4">
<path id="Vector_2" d="M34.6209 20.3796C35.4155 21.1742 35.4155 22.4596 34.6209 23.2542L30.3673 27.5078L34.5897 31.7302C35.3843 32.5248 35.3843 33.8102 34.5897 34.6048C33.7951 35.3994 32.5097 35.3994 31.7151 34.6048L27.4927 30.3824L23.2392 34.636C22.4445 35.4306 21.1591 35.4306 20.3645 34.636C19.5699 33.8414 19.5699 32.5559 20.3645 31.7613L24.6181 27.5078L20.3957 23.2854C19.6011 22.4908 19.6011 21.2054 20.3957 20.4108C21.1903 19.6161 22.4757 19.6161 23.2703 20.4108L27.4927 24.6331L31.7462 20.3796C32.5487 19.585 33.8341 19.585 34.6209 20.3796Z" fill="#4D4D4D"/>
</g>
</g>
</g>
</g>
</svg>
